# xmcd
#
# Track frame offsets:
#	150
#	19838
#	34704
#	51090
#	65239
#	78660
#	93263
#	104825
#
# Disc length: 1554 seconds
#
# Revision: 0
# Processed by: cddbd v1.4PL0 Copyright (c) Steve Scherf et al.
# Submitted via: dBpowerAMP V4.0
#
DISCID=6b061008
DTITLE=Johnny Dunn and the Dare Ya Blues Band - Room To Move
DYEAR=2002
DGENRE=Blues
TTITLE0=Room To Move
TTITLE1=Outer Banks
TTITLE2=She Does Too
TTITLE3=Life On The Chin
TTITLE4=Dreams
TTITLE5=Four Letter Word
TTITLE6=Won't Be The Same
TTITLE7=Wasted On Club Soda
EXTD=
EXTT0=
EXTT1=
EXTT2=
EXTT3=
EXTT4=
EXTT5=
EXTT6=
EXTT7=
PLAYORDER=
